<?xml version="1.0" encoding="UTF-8"?><svg id="Layer_1" xmlns="http://www.w3.org/2000/svg" viewBox="0 0 750 750"><defs><style>.cls-1{fill:#fff;}.cls-2{fill:#febf10;}.cls-3{fill:#13649f;}.cls-4{fill:#142a50;}</style></defs><circle class="cls-2" cx="375" cy="375" r="349.37"/><path class="cls-1" d="m420.61,119.79c-44.46-11.46-87.39-8.37-130.78,9.49-2.73-3.42-6.92-5.62-11.64-5.62-8.22,0-14.88,6.66-14.88,14.88s6.66,14.88,14.88,14.88,14.88-6.66,14.88-14.88c0-.64-.05-1.27-.13-1.89,41.74-17.15,82.99-20.13,125.67-9.12,2.14.55,4.32-.74,4.87-2.88.55-2.14-.74-4.32-2.87-4.87Z"/><path class="cls-1" d="m255.05,149.71c-1.07-1.93-3.5-2.63-5.44-1.56-48.73,26.97-89.02,77.54-105.72,131.53-7.69.57-13.76,6.98-13.76,14.82s6.66,14.88,14.88,14.88,14.88-6.66,14.88-14.88c0-5.78-3.3-10.78-8.11-13.24,7.09-22.51,18.63-44.88,33.85-65.43,18.99-25.64,42.46-46.63,67.86-60.68,1.93-1.07,2.63-3.5,1.56-5.44Z"/><path class="cls-1" d="m396.41,152.17c-15.61-2.97-31.99-.19-42.73,2.32-2.67-3.99-7.21-6.62-12.37-6.62-8.22,0-14.88,6.66-14.88,14.88s6.66,14.88,14.88,14.88,14.88-6.66,14.88-14.88c0-.21-.02-.41-.03-.62,10.09-2.31,24.94-4.73,38.76-2.1,2.16.41,4.26-1.01,4.68-3.18.41-2.17-1.01-4.26-3.18-4.68Z"/><path class="cls-1" d="m313.99,172.99c2.14-.56,3.41-2.75,2.85-4.89-.56-2.14-2.75-3.41-4.89-2.85-32.61,8.6-55.3,28.99-69.92,47.45-1.44-.46-2.96-.72-4.55-.72-8.22,0-14.88,6.66-14.88,14.88s6.66,14.88,14.88,14.88,14.88-6.66,14.88-14.88c0-3.72-1.38-7.12-3.64-9.73,13.81-17.28,35.03-36.18,65.27-44.16Z"/><path class="cls-1" d="m376.43,190.59c-20.63-.54-38.25,4.09-53.49,14.06-2.53-1.67-5.57-2.59-8.83-2.45-8.21.36-14.57,7.31-14.21,15.52.36,8.21,7.31,14.57,15.52,14.21,8.21-.36,14.57-7.31,14.21-15.52-.09-2.02-.58-3.93-1.39-5.66,13.69-8.65,29.52-12.65,47.98-12.17,2.17.07,4.04-1.68,4.1-3.89.06-2.21-1.69-4.05-3.89-4.1Z"/><path class="cls-1" d="m326.43,102.21c8.15,0,14.77-6.56,14.87-14.69,9.46-1.96,21.26-3.15,33-1.06,2.17.39,4.25-1.06,4.64-3.24.39-2.17-1.06-4.25-3.24-4.64-13.09-2.33-26.15-.97-36.47,1.2-2.59-4.38-7.35-7.33-12.8-7.33-8.22,0-14.88,6.66-14.88,14.88s6.66,14.88,14.88,14.88Z"/><path class="cls-1" d="m207.08,150.25c8.22,0,14.88-6.66,14.88-14.88,0-1.33-.19-2.62-.52-3.85,22.33-14.78,46.97-28.18,75.69-33.55,2.17-.41,3.6-2.5,3.2-4.67s-2.49-3.6-4.67-3.2c-17.86,3.34-41.02,10.19-78.27,34.55-2.68-2.58-6.3-4.17-10.31-4.17-8.22,0-14.88,6.66-14.88,14.88s6.66,14.88,14.88,14.88Z"/><path class="cls-1" d="m145.87,214.22c0-3.41-1.16-6.55-3.09-9.06,12.94-17.71,27.46-33.41,44.14-47.7,1.68-1.44,1.87-3.96.43-5.64-1.44-1.68-3.96-1.87-5.64-.44-17.13,14.68-32.05,30.8-45.34,48.98-1.67-.65-3.48-1.02-5.38-1.02-8.22,0-14.88,6.66-14.88,14.88s6.66,14.88,14.88,14.88,14.88-6.66,14.88-14.88Z"/><path class="cls-4" d="m682.7,394.57c7.1-111.48-44.18-221.08-137.86-282.42-50.37-32.98-106.21-49.89-169.63-53.13,3.56,23.57,43.55,59.93,72.81,63.94-35.46,23.4-51.93,60.9-63.6,103.06,85.46,15.81,141.79-19.11,162.42-62.62.03.02,51.25,32.45,58.24,90.13,10.58,87.23-50.87,123.08-145.74,129.31H66.65c0,16.46,1.31,32.62,3.79,48.38l146.71.08c2.3,0,4.36,1.44,5.16,3.6,11.92,32.31,33.14,59.97,61.36,79.99,8.45,6,17.36,11.16,26.61,15.47.2,3.98.51,8.15.93,12.46.98,10,2.53,20.8,4.62,31.94.76,4.07,1.6,8.18,2.51,12.32,2.36,10.78,5.19,21.72,8.46,32.43,1.24,4.07,2.55,8.11,3.92,12.09,3.32,9.67,6.99,19.03,11.01,27.76,1.88,4.1,3.84,8.05,5.86,11.84,3.82,7.15,7.9,13.69,12.2,19.42,1.81,2.42,3.67,4.69,5.56,6.8,58.03,64.67,191.78,52.4,244.29,9.34l-73.11-61.6c84.74-52.36,142.2-144.63,146.17-250.59Z"/><path class="cls-2" d="m160.7,414.72c0-7.73,6.74-14,15.04-14s15.04,6.27,15.04,14"/><path class="cls-3" d="m236.73,541.85c-30.46-26.73-52.89-61.09-65.04-99.58l-30.49-.02c11.8,42.8,34.77,81.67,66.71,112.79,32.94,32.09,73.93,54.28,118.87,64.45-3.27-10.71-6.1-21.65-8.46-32.43-30.05-9.03-57.82-24.36-81.6-45.22Z"/><path class="cls-3" d="m280.29,655.31c-31.45-11.45-60.57-28.07-86.57-49.38-51.01-41.82-86.91-99.81-101.47-163.7h-19.86c26.75,136.99,144.26,241.51,287.39,248.38-4.3-5.73-8.38-12.27-12.2-19.42-22.99-2.65-45.52-7.95-67.29-15.88Z"/><path class="cls-3" d="m200.25,562.93c-34.08-33.19-58.37-74.84-70.44-120.68h-26.27c14.37,60.53,48.68,115.43,97.15,155.17,25.04,20.52,53.08,36.52,83.36,47.55,18.71,6.81,38,11.61,57.66,14.38-4.01-8.73-7.69-18.08-11.01-27.76-49.41-9.91-94.51-33.65-130.46-68.66Z"/><path class="cls-3" d="m277.3,523.86c-28.99-20.56-51.03-48.7-63.95-81.56l-30.1-.02c11.77,35.23,32.66,66.67,60.73,91.31,21.08,18.5,45.47,32.42,71.84,41.17-2.09-11.14-3.65-21.93-4.62-31.94-11.86-5.04-23.21-11.38-33.9-18.96Z"/></svg>